<svg width="300" height="90" viewBox="0 0 300 90" fill="none" xmlns="http://www.w3.org/2000/svg">
<rect width="300" height="90" fill="#F5F5F5"/>
<rect y="90" width="90" height="300" transform="rotate(-90 0 90)" fill="#E0EDF2"/>
<g clip-path="url(#clip0_0_1)">
<path d="M237.041 44.0898C236.423 43.4715 235.421 43.4715 234.803 44.0898L231.003 47.8892C230.385 48.5075 230.385 49.5118 231.003 50.13L234.803 53.9293C235.118 54.2452 235.521 54.3956 235.925 54.3956C236.329 54.3956 236.735 54.2422 237.044 53.933C237.663 53.3146 237.663 52.3104 237.044 51.6922L234.366 49.0132L237.046 46.3346C237.595 45.7125 237.595 44.7152 237.041 44.0898ZM253.125 31.0755L247.218 25.1675C246.263 24.2179 244.972 23.6842 243.635 23.6842H229.276C226.478 23.6842 224.211 25.9519 224.211 28.75L224.211 59.1447C224.211 61.942 226.479 64.2105 229.277 64.2105H249.539C252.326 64.2105 254.605 61.9309 254.605 59.1447V34.6548C254.605 33.3171 254.075 32.0269 253.125 31.0755ZM250.806 59.1447C250.806 59.8441 250.239 60.4112 249.539 60.4112H229.278C228.578 60.4112 228.011 59.8441 228.011 59.1447L228.01 28.7603C228.01 28.0609 228.577 27.4938 229.276 27.4938H241.941V33.8158C241.941 35.2144 243.075 36.3487 244.474 36.3487H250.735V59.1447H250.806ZM241.775 44.0898C241.156 44.7082 241.156 45.7125 241.775 46.3307L244.45 49.0132L241.77 51.6917C241.151 52.31 241.151 53.3143 241.77 53.9325C242.083 54.2452 242.487 54.3956 242.891 54.3956C243.294 54.3956 243.7 54.2422 244.01 53.933L247.809 50.1336C248.428 49.5153 248.428 48.511 247.809 47.8928L244.01 44.0935C243.389 43.4725 242.392 43.4724 241.775 44.0898Z" fill="black"/>
</g>
<path d="M54.8965 41.9622H50.7966C50.7217 41.4317 50.5688 40.9606 50.3379 40.5487C50.107 40.1306 49.8106 39.7749 49.4486 39.4816C49.0867 39.1883 48.6686 38.9637 48.1943 38.8077C47.7263 38.6517 47.2177 38.5736 46.6686 38.5736C45.6763 38.5736 44.8121 38.8201 44.0757 39.3131C43.3393 39.7999 42.7683 40.5113 42.3627 41.4473C41.9571 42.3771 41.7543 43.5067 41.7543 44.8359C41.7543 46.2025 41.9571 47.3507 42.3627 48.2805C42.7746 49.2103 43.3487 49.9124 44.085 50.3867C44.8214 50.8609 45.6732 51.0981 46.6405 51.0981C47.1834 51.0981 47.6857 51.0263 48.1475 50.8828C48.6156 50.7392 49.0305 50.5302 49.3925 50.2556C49.7544 49.9748 50.054 49.6347 50.2911 49.2353C50.5345 48.8359 50.703 48.3804 50.7966 47.8687L54.8965 47.8874C54.7904 48.7673 54.5252 49.616 54.1008 50.4335C53.6827 51.2447 53.118 51.9717 52.4066 52.6145C51.7014 53.251 50.859 53.7565 49.8792 54.1309C48.9057 54.4991 47.8043 54.6831 46.575 54.6831C44.8651 54.6831 43.3362 54.2962 41.9883 53.5224C40.6466 52.7486 39.5857 51.6285 38.8057 50.162C38.0319 48.6955 37.645 46.9201 37.645 44.8359C37.645 42.7453 38.0381 40.9668 38.8244 39.5003C39.6107 38.0339 40.6778 36.9168 42.0257 36.1493C43.3736 35.3755 44.8901 34.9886 46.575 34.9886C47.6857 34.9886 48.7154 35.1446 49.6639 35.4566C50.6187 35.7686 51.4643 36.2241 52.2006 36.8232C52.937 37.4161 53.5361 38.1431 53.9979 39.0042C54.4659 39.8654 54.7654 40.8514 54.8965 41.9622ZM66.9482 48.2993V40.0433H70.9358V54.4211H67.1073V51.8095H66.9575C66.633 52.6519 66.0933 53.329 65.3382 53.8407C64.5893 54.3524 63.6751 54.6083 62.5955 54.6083C61.6345 54.6083 60.7889 54.3898 60.0588 53.953C59.3287 53.5162 58.7577 52.8953 58.3458 52.0903C57.9402 51.2853 57.7343 50.3211 57.728 49.1979V40.0433H61.7156V48.4865C61.7219 49.3352 61.9497 50.006 62.399 50.499C62.8483 50.992 63.4505 51.2385 64.2055 51.2385C64.6861 51.2385 65.1354 51.1293 65.5535 50.9108C65.9716 50.6862 66.3085 50.3555 66.5644 49.9186C66.8265 49.4818 66.9544 48.942 66.9482 48.2993ZM74.1254 54.4211V40.0433H77.9913V42.5519H78.1411C78.4032 41.6595 78.8431 40.9855 79.4609 40.53C80.0787 40.0682 80.7901 39.8373 81.5951 39.8373C81.7948 39.8373 82.0101 39.8498 82.241 39.8748C82.4719 39.8997 82.6747 39.934 82.8494 39.9777V43.516C82.6622 43.4599 82.4032 43.4099 82.0725 43.3662C81.7417 43.3226 81.4391 43.3007 81.1645 43.3007C80.5779 43.3007 80.0537 43.4286 79.5919 43.6845C79.1364 43.9341 78.7745 44.2836 78.5061 44.7329C78.244 45.1822 78.113 45.7001 78.113 46.2867V54.4211H74.1254ZM84.9111 54.4211V40.0433H88.777V42.5519H88.9267C89.1888 41.6595 89.6288 40.9855 90.2466 40.53C90.8644 40.0682 91.5758 39.8373 92.3808 39.8373C92.5805 39.8373 92.7958 39.8498 93.0267 39.8748C93.2576 39.8997 93.4604 39.934 93.6351 39.9777V43.516C93.4479 43.4599 93.1889 43.4099 92.8582 43.3662C92.5274 43.3226 92.2248 43.3007 91.9502 43.3007C91.3636 43.3007 90.8394 43.4286 90.3776 43.6845C89.9221 43.9341 89.5601 44.2836 89.2918 44.7329C89.0297 45.1822 88.8987 45.7001 88.8987 46.2867V54.4211H84.9111ZM95.6968 54.4211V40.0433H99.6844V54.4211H95.6968ZM96.2678 38.1899L98.2522 33.9308H101.94L99.0853 38.1899H96.2678ZM109.375 54.7019C107.902 54.7019 106.635 54.3898 105.574 53.7658C104.52 53.1355 103.709 52.2619 103.141 51.1449C102.579 50.0278 102.298 48.7423 102.298 47.2883C102.298 45.8156 102.582 44.5238 103.15 43.413C103.724 42.296 104.539 41.4255 105.593 40.8015C106.648 40.1712 107.902 39.856 109.356 39.856C110.61 39.856 111.709 40.0838 112.651 40.5394C113.593 40.9949 114.339 41.6345 114.888 42.4583C115.437 43.282 115.74 44.2493 115.796 45.36H112.033C111.927 44.6424 111.646 44.0652 111.191 43.6283C110.741 43.1853 110.152 42.9637 109.422 42.9637C108.804 42.9637 108.264 43.1322 107.802 43.4692C107.347 43.8 106.991 44.2836 106.735 44.9201C106.479 45.5566 106.351 46.3273 106.351 47.2322C106.351 48.1495 106.476 48.9295 106.726 49.5723C106.982 50.215 107.34 50.7049 107.802 51.0419C108.264 51.3789 108.804 51.5474 109.422 51.5474C109.877 51.5474 110.286 51.4538 110.648 51.2665C111.016 51.0793 111.319 50.8079 111.556 50.4522C111.799 50.0902 111.958 49.6565 112.033 49.1511H115.796C115.734 50.2494 115.434 51.2166 114.898 52.0528C114.367 52.8828 113.634 53.5318 112.698 53.9998C111.762 54.4679 110.654 54.7019 109.375 54.7019ZM127.569 48.2993V40.0433H131.557V54.4211H127.729V51.8095H127.579C127.254 52.6519 126.714 53.329 125.959 53.8407C125.211 54.3524 124.296 54.6083 123.217 54.6083C122.256 54.6083 121.41 54.3898 120.68 53.953C119.95 53.5162 119.379 52.8953 118.967 52.0903C118.561 51.2853 118.356 50.3211 118.349 49.1979V40.0433H122.337V48.4865C122.343 49.3352 122.571 50.006 123.02 50.499C123.47 50.992 124.072 51.2385 124.827 51.2385C125.307 51.2385 125.757 51.1293 126.175 50.9108C126.593 50.6862 126.93 50.3555 127.186 49.9186C127.448 49.4818 127.576 48.942 127.569 48.2993ZM138.734 35.2507V54.4211H134.747V35.2507H138.734ZM148.425 54.7019C146.971 54.7019 145.713 54.393 144.652 53.7752C143.598 53.1511 142.783 52.2837 142.209 51.1729C141.635 50.0559 141.348 48.761 141.348 47.2883C141.348 45.8031 141.635 44.5051 142.209 43.3943C142.783 42.2773 143.598 41.4099 144.652 40.7921C145.713 40.1681 146.971 39.856 148.425 39.856C149.879 39.856 151.133 40.1681 152.188 40.7921C153.249 41.4099 154.066 42.2773 154.64 43.3943C155.214 44.5051 155.501 45.8031 155.501 47.2883C155.501 48.761 155.214 50.0559 154.64 51.1729C154.066 52.2837 153.249 53.1511 152.188 53.7752C151.133 54.393 149.879 54.7019 148.425 54.7019ZM148.443 51.6129C149.105 51.6129 149.657 51.4257 150.1 51.0513C150.543 50.6706 150.877 50.1526 151.102 49.4974C151.333 48.8422 151.448 48.0964 151.448 47.2602C151.448 46.424 151.333 45.6783 151.102 45.0231C150.877 44.3678 150.543 43.8499 150.1 43.4692C149.657 43.0885 149.105 42.8982 148.443 42.8982C147.776 42.8982 147.214 43.0885 146.759 43.4692C146.309 43.8499 145.969 44.3678 145.738 45.0231C145.514 45.6783 145.401 46.424 145.401 47.2602C145.401 48.0964 145.514 48.8422 145.738 49.4974C145.969 50.1526 146.309 50.6706 146.759 51.0513C147.214 51.4257 147.776 51.6129 148.443 51.6129Z" fill="black"/>
<defs>
<clipPath id="clip0_0_1">
<rect width="30.3947" height="40.5263" fill="white" transform="translate(224.211 23.6842)"/>
</clipPath>
</defs>
</svg>
