<svg width="190" height="57" viewBox="0 0 190 57" fill="none" xmlns="http://www.w3.org/2000/svg">
<rect width="190" height="57" fill="#F5F5F5"/>
<rect y="57" width="57" height="190" transform="rotate(-90 0 57)" fill="#E0EDF2"/>
<g clip-path="url(#clip0_0_1)">
<path d="M150.126 27.9236C149.734 27.5319 149.1 27.5319 148.708 27.9236L146.302 30.3298C145.911 30.7214 145.911 31.3575 146.302 31.749L148.708 34.1553C148.908 34.3553 149.164 34.4505 149.419 34.4505C149.675 34.4505 149.932 34.3534 150.128 34.1576C150.52 33.7659 150.52 33.1299 150.128 32.7384L148.432 31.0417L150.129 29.3453C150.477 28.9512 150.477 28.3196 150.126 27.9236ZM160.313 19.6812L156.571 15.9394C155.966 15.338 155.149 15 154.302 15H145.208C143.436 15 142 16.4362 142 18.2083L142 37.4583C142 39.2299 143.437 40.6667 145.209 40.6667H158.042C159.806 40.6667 161.25 39.2229 161.25 37.4583V21.948C161.25 21.1008 160.914 20.2837 160.313 19.6812ZM158.844 37.4583C158.844 37.9013 158.485 38.2604 158.042 38.2604H145.209C144.766 38.2604 144.407 37.9013 144.407 37.4583L144.406 18.2149C144.406 17.7719 144.765 17.4128 145.208 17.4128H153.229V21.4167C153.229 22.3025 153.948 23.0208 154.833 23.0208H158.799V37.4583H158.844ZM153.124 27.9236C152.732 28.3152 152.732 28.9512 153.124 29.3428L154.818 31.0417L153.121 32.7381C152.729 33.1297 152.729 33.7657 153.121 34.1573C153.319 34.3553 153.575 34.4505 153.831 34.4505C154.086 34.4505 154.344 34.3534 154.54 34.1576L156.946 31.7513C157.337 31.3597 157.337 30.7236 156.946 30.3321L154.54 27.9259C154.147 27.5326 153.515 27.5326 153.124 27.9236Z" fill="black"/>
</g>
<path d="M34.7678 26.1094H32.1712C32.1237 25.7734 32.0269 25.475 31.8807 25.2142C31.7344 24.9494 31.5467 24.7241 31.3175 24.5384C31.0882 24.3526 30.8234 24.2103 30.5231 24.1115C30.2267 24.0127 29.9045 23.9633 29.5568 23.9633C28.9283 23.9633 28.381 24.1194 27.9146 24.4316C27.4482 24.7399 27.0866 25.1905 26.8297 25.7833C26.5728 26.3722 26.4444 27.0875 26.4444 27.9294C26.4444 28.7949 26.5728 29.5221 26.8297 30.111C27.0906 30.6999 27.4542 31.1445 27.9205 31.4449C28.3869 31.7453 28.9264 31.8954 29.539 31.8954C29.8828 31.8954 30.201 31.85 30.4934 31.7591C30.7898 31.6682 31.0527 31.5358 31.2819 31.3619C31.5111 31.184 31.7008 30.9686 31.851 30.7157C32.0052 30.4628 32.1119 30.1742 32.1712 29.8502L34.7678 29.862C34.7006 30.4193 34.5326 30.9568 34.2639 31.4745C33.9991 31.9883 33.6414 32.4487 33.1908 32.8558C32.7442 33.259 32.2107 33.5791 31.5902 33.8162C30.9736 34.0494 30.2761 34.166 29.4975 34.166C28.4146 34.166 27.4463 33.921 26.5926 33.4309C25.7428 32.9408 25.071 32.2314 24.5769 31.3026C24.0869 30.3738 23.8418 29.2494 23.8418 27.9294C23.8418 26.6054 24.0908 25.479 24.5888 24.5502C25.0868 23.6214 25.7626 22.914 26.6163 22.4279C27.47 21.9378 28.4304 21.6928 29.4975 21.6928C30.201 21.6928 30.8531 21.7916 31.4538 21.9892C32.0585 22.1868 32.594 22.4753 33.0604 22.8547C33.5268 23.2302 33.9062 23.6906 34.1986 24.236C34.4951 24.7814 34.6848 25.4059 34.7678 26.1094ZM42.4005 30.1229V24.8941H44.926V34H42.5013V32.346H42.4064C42.2009 32.8795 41.8591 33.3084 41.3808 33.6324C40.9066 33.9565 40.3276 34.1186 39.6438 34.1186C39.0352 34.1186 38.4997 33.9802 38.0372 33.7036C37.5748 33.4269 37.2132 33.0337 36.9524 32.5238C36.6955 32.014 36.565 31.4034 36.5611 30.692V24.8941H39.0866V30.2414C39.0905 30.7789 39.2348 31.2038 39.5193 31.516C39.8039 31.8282 40.1853 31.9844 40.6635 31.9844C40.9678 31.9844 41.2524 31.9152 41.5172 31.7769C41.782 31.6346 41.9954 31.4251 42.1574 31.1485C42.3234 30.8718 42.4045 30.5299 42.4005 30.1229ZM46.9461 34V24.8941H49.3945V26.4829H49.4893C49.6553 25.9177 49.934 25.4908 50.3252 25.2023C50.7165 24.9099 51.1671 24.7636 51.6769 24.7636C51.8034 24.7636 51.9397 24.7715 52.0859 24.7874C52.2322 24.8032 52.3606 24.8249 52.4713 24.8526V27.0935C52.3527 27.0579 52.1887 27.0263 51.9792 26.9986C51.7698 26.971 51.5781 26.9571 51.4042 26.9571C51.0327 26.9571 50.7007 27.0381 50.4082 27.2002C50.1197 27.3583 49.8905 27.5796 49.7205 27.8642C49.5545 28.1487 49.4715 28.4768 49.4715 28.8483V34H46.9461ZM53.777 34V24.8941H56.2254V26.4829H56.3203C56.4863 25.9177 56.7649 25.4908 57.1562 25.2023C57.5474 24.9099 57.998 24.7636 58.5078 24.7636C58.6343 24.7636 58.7707 24.7715 58.9169 24.7874C59.0631 24.8032 59.1916 24.8249 59.3022 24.8526V27.0935C59.1837 27.0579 59.0196 27.0263 58.8102 26.9986C58.6007 26.971 58.409 26.9571 58.2351 26.9571C57.8636 26.9571 57.5316 27.0381 57.2392 27.2002C56.9506 27.3583 56.7214 27.5796 56.5515 27.8642C56.3855 28.1487 56.3025 28.4768 56.3025 28.8483V34H53.777ZM60.6079 34V24.8941H63.1334V34H60.6079ZM60.9696 23.7202L62.2264 21.0229H64.5621L62.754 23.7202H60.9696ZM69.2707 34.1779C68.338 34.1779 67.5357 33.9802 66.8638 33.585C66.1959 33.1858 65.6821 32.6325 65.3225 31.9251C64.9668 31.2176 64.7889 30.4035 64.7889 29.4826C64.7889 28.5499 64.9687 27.7318 65.3284 27.0283C65.692 26.3208 66.2078 25.7695 66.8757 25.3743C67.5436 24.9751 68.338 24.7755 69.2589 24.7755C70.0533 24.7755 70.7489 24.9198 71.3457 25.2083C71.9424 25.4968 72.4147 25.9019 72.7625 26.4236C73.1103 26.9453 73.302 27.5579 73.3376 28.2614H70.9544C70.8872 27.8069 70.7094 27.4413 70.4208 27.1646C70.1363 26.884 69.7628 26.7437 69.3004 26.7437C68.9091 26.7437 68.5672 26.8504 68.2748 27.0638C67.9863 27.2733 67.761 27.5796 67.5989 27.9827C67.4369 28.3859 67.3559 28.874 67.3559 29.447C67.3559 30.028 67.4349 30.522 67.593 30.9291C67.7551 31.3362 67.9823 31.6464 68.2748 31.8599C68.5672 32.0733 68.9091 32.18 69.3004 32.18C69.5889 32.18 69.8478 32.1207 70.077 32.0021C70.3102 31.8836 70.5019 31.7117 70.652 31.4864C70.8062 31.2572 70.907 30.9825 70.9544 30.6623H73.3376C73.2981 31.3579 73.1084 31.9705 72.7685 32.5001C72.4325 33.0258 71.9681 33.4368 71.3753 33.7332C70.7825 34.0296 70.0809 34.1779 69.2707 34.1779ZM80.794 30.1229V24.8941H83.3194V34H80.8947V32.346H80.7999C80.5944 32.8795 80.2525 33.3084 79.7743 33.6324C79.3 33.9565 78.721 34.1186 78.0373 34.1186C77.4286 34.1186 76.8931 33.9802 76.4307 33.7036C75.9683 33.4269 75.6067 33.0337 75.3458 32.5238C75.0889 32.014 74.9585 31.4034 74.9545 30.692V24.8941H77.48V30.2414C77.484 30.7789 77.6282 31.2038 77.9128 31.516C78.1973 31.8282 78.5787 31.9844 79.057 31.9844C79.3613 31.9844 79.6458 31.9152 79.9106 31.7769C80.1754 31.6346 80.3889 31.4251 80.5509 31.1485C80.7169 30.8718 80.7979 30.5299 80.794 30.1229ZM87.865 21.8587V34H85.3395V21.8587H87.865ZM94.0023 34.1779C93.0814 34.1779 92.2851 33.9822 91.6132 33.5909C90.9453 33.1957 90.4295 32.6464 90.0659 31.9429C89.7023 31.2354 89.5205 30.4153 89.5205 29.4826C89.5205 28.542 89.7023 27.7199 90.0659 27.0164C90.4295 26.309 90.9453 25.7596 91.6132 25.3683C92.2851 24.9731 93.0814 24.7755 94.0023 24.7755C94.9232 24.7755 95.7176 24.9731 96.3855 25.3683C97.0574 25.7596 97.5751 26.309 97.9387 27.0164C98.3023 27.7199 98.4841 28.542 98.4841 29.4826C98.4841 30.4153 98.3023 31.2354 97.9387 31.9429C97.5751 32.6464 97.0574 33.1957 96.3855 33.5909C95.7176 33.9822 94.9232 34.1779 94.0023 34.1779ZM94.0142 32.2215C94.4331 32.2215 94.7829 32.1029 95.0635 31.8658C95.3441 31.6247 95.5555 31.2967 95.6978 30.8817C95.8441 30.4667 95.9172 29.9944 95.9172 29.4648C95.9172 28.9352 95.8441 28.4629 95.6978 28.0479C95.5555 27.633 95.3441 27.3049 95.0635 27.0638C94.7829 26.8227 94.4331 26.7022 94.0142 26.7022C93.5913 26.7022 93.2356 26.8227 92.9471 27.0638C92.6625 27.3049 92.4471 27.633 92.3009 28.0479C92.1586 28.4629 92.0875 28.9352 92.0875 29.4648C92.0875 29.9944 92.1586 30.4667 92.3009 30.8817C92.4471 31.2967 92.6625 31.6247 92.9471 31.8658C93.2356 32.1029 93.5913 32.2215 94.0142 32.2215Z" fill="black"/>
<defs>
<clipPath id="clip0_0_1">
<rect width="19.25" height="25.6667" fill="white" transform="translate(142 15)"/>
</clipPath>
</defs>
</svg>
